<svg width="1026" height="900" viewBox="0 0 1026 900" fill="none" xmlns="http://www.w3.org/2000/svg">
<path d="M468.5 331.5C501.3 311.5 634.5 101.167 697 -1.5L857 -100L1200.5 -61C1208.83 -24.6667 1206.5 51.7 1130.5 66.5C1054.5 81.3 934.5 249.333 884 331.5C842.833 480.333 736.7 787 641.5 823C522.5 868 277.5 817 263 677C248.5 537 427.5 356.5 468.5 331.5Z" fill="#FF7200" fill-opacity="0.27"/>
<path d="M325.181 331.005C376.874 305.187 586.797 33.6773 685.297 -98.8506L937.457 -226L1478.81 -175.657C1491.95 -128.755 1488.27 -30.1771 1368.49 -11.0724C1248.72 8.03226 1059.6 224.939 980.009 331.005C915.131 523.127 747.865 918.99 597.829 965.46C410.285 1023.55 24.1652 957.715 1.31321 776.995C-21.5388 596.276 260.565 363.276 325.181 331.005Z" fill="#FF7200" fill-opacity="0.27"/>
</svg>
