<svg width="38" height="38" viewBox="0 0 38 38" fill="none" xmlns="http://www.w3.org/2000/svg">
<g filter="url(#filter0_d)">
<path d="M34 3.02143L30.9786 0L19 11.9786L7.02143 0L4 3.02143L15.9786 15L4 26.9786L7.02143 30L19 18.0214L30.9786 30L34 26.9786L22.0214 15L34 3.02143Z" fill="black"/>
<path d="M21.6679 15.3536L33.2929 26.9786L30.9786 29.2929L19.3536 17.6679L19 17.3143L18.6464 17.6679L7.02143 29.2929L4.70711 26.9786L16.3321 15.3536L16.6857 15L16.3321 14.6464L4.70711 3.02143L7.02143 0.707107L18.6464 12.3321L19 12.6857L19.3536 12.3321L30.9786 0.707107L33.2929 3.02143L21.6679 14.6464L21.3143 15L21.6679 15.3536Z" stroke="black"/>
</g>
<defs>
<filter id="filter0_d" x="0" y="0" width="38" height="38" filterUnits="userSpaceOnUse" color-interpolation-filters="sRGB">
<feFlood flood-opacity="0" result="BackgroundImageFix"/>
<feColorMatrix in="SourceAlpha" type="matrix" values="0 0 0 0 0 0 0 0 0 0 0 0 0 0 0 0 0 0 127 0"/>
<feOffset dy="4"/>
<feGaussianBlur stdDeviation="2"/>
<feColorMatrix type="matrix" values="0 0 0 0 0 0 0 0 0 0 0 0 0 0 0 0 0 0 0.25 0"/>
<feBlend mode="normal" in2="BackgroundImageFix" result="effect1_dropShadow"/>
<feBlend mode="normal" in="SourceGraphic" in2="effect1_dropShadow" result="shape"/>
</filter>
</defs>
</svg>
