<svg width="31" height="31" viewBox="0 0 31 31" fill="none" xmlns="http://www.w3.org/2000/svg">
<path d="M22.0658 19.3679H20.7108L20.2305 18.9048C21.9114 16.9494 22.9235 14.4108 22.9235 11.6492C22.9235 5.49142 17.932 0.5 11.7742 0.5C5.61642 0.5 0.625 5.49142 0.625 11.6492C0.625 17.807 5.61642 22.7985 11.7742 22.7985C14.5358 22.7985 17.0744 21.7864 19.0298 20.1055L19.4929 20.5858V21.9408L28.0693 30.5L30.625 27.9443L22.0658 19.3679ZM11.7742 19.3679C7.50322 19.3679 4.05553 15.9202 4.05553 11.6492C4.05553 7.37822 7.50322 3.93053 11.7742 3.93053C16.0452 3.93053 19.4929 7.37822 19.4929 11.6492C19.4929 15.9202 16.0452 19.3679 11.7742 19.3679Z" fill="black"/>
</svg>
